<mxfile host="app.diagrams.net" modified="2023-08-04T22:28:28.844Z" agent="Mozilla/5.0 (Windows NT 10.0; Win64; x64) AppleWebKit/537.36 (KHTML, like Gecko) Chrome/115.0.0.0 Safari/537.36 Edg/115.0.1901.188" version="21.6.6" etag="aT4QEk7boXzFy2j8AE1i" type="github">
  <diagram name="PÃ¡gina-1" id="96vQwnGHIT8C05yqiQXk">
    <mxGraphModel>
      <root>
        <mxCell id="0" />
        <mxCell id="1" parent="0" />
      </root>
    </mxGraphModel>
  </diagram>
</mxfile>
